<?xml version="1.0" encoding="UTF-8" standalone="no"?>
<!-- Created with Inkscape (http://www.inkscape.org/) -->

<svg
   xmlns:dc="http://purl.org/dc/elements/1.1/"
   xmlns:cc="http://creativecommons.org/ns#"
   xmlns:rdf="http://www.w3.org/1999/02/22-rdf-syntax-ns#"
   xmlns:svg="http://www.w3.org/2000/svg"
   xmlns="http://www.w3.org/2000/svg"
   xmlns:sodipodi="http://sodipodi.sourceforge.net/DTD/sodipodi-0.dtd"
   xmlns:inkscape="http://www.inkscape.org/namespaces/inkscape"
   id="svg2"
   sodipodi:docname="switchlight.svg"
   viewBox="0 0 1786.2499 363.67633"
   version="1.1"
   inkscape:version="0.48.4 r9939"
   width="100%"
   height="100%">
  <defs
     id="defs4">
    <filter
       id="filter3737"
       inkscape:collect="always"
       color-interpolation-filters="sRGB">
      <feGaussianBlur
         id="feGaussianBlur3739"
         stdDeviation="1.586875"
         inkscape:collect="always" />
    </filter>
    <filter
       id="filter3741"
       inkscape:collect="always"
       color-interpolation-filters="sRGB">
      <feGaussianBlur
         id="feGaussianBlur3743"
         stdDeviation="1.586875"
         inkscape:collect="always" />
    </filter>
    <linearGradient
       id="linearGradient3783"
       y2="604.06"
       gradientUnits="userSpaceOnUse"
       x2="384"
       y1="314.35999"
       x1="218"
       inkscape:collect="always">
      <stop
         id="stop3666"
         style="stop-color:#f2ebd2"
         offset="0" />
      <stop
         id="stop3668"
         style="stop-color:#e2d49c"
         offset="1" />
    </linearGradient>
    <linearGradient
       id="linearGradient3785"
       y2="283.67999"
       gradientUnits="userSpaceOnUse"
       x2="250.97"
       y1="317.81"
       x1="282.44"
       inkscape:collect="always">
      <stop
         id="stop3705"
         style="stop-color:#2e3436"
         offset="0" />
      <stop
         id="stop3707"
         style="stop-color:#2e3436;stop-opacity:0"
         offset="1" />
    </linearGradient>
    <linearGradient
       id="linearGradient3787"
       y2="285.67001"
       gradientUnits="userSpaceOnUse"
       x2="250.97"
       y1="314.85999"
       x1="284.95001"
       inkscape:collect="always">
      <stop
         id="stop3713"
         style="stop-color:#323232"
         offset="0" />
      <stop
         id="stop3715"
         style="stop-color:#323232;stop-opacity:0"
         offset="1" />
    </linearGradient>
    <filter
       id="filter3789"
       inkscape:collect="always"
       color-interpolation-filters="sRGB">
      <feGaussianBlur
         id="feGaussianBlur3791"
         stdDeviation="1.7571428"
         inkscape:collect="always" />
    </filter>
    <filter
       id="filter3067"
       inkscape:label="Bloom"
       inkscape:menu="Bevels"
       inkscape:menu-tooltip="Soft, cushion-like bevel with matte highlights"
       color-interpolation-filters="sRGB">
      <feGaussianBlur
         id="feGaussianBlur3069"
         result="result1"
         in="SourceAlpha"
         stdDeviation="2.2" />
      <feSpecularLighting
         id="feSpecularLighting3071"
         result="result0"
         specularExponent="18.1"
         specularConstant="2"
         surfaceScale="5">
        <feDistantLight
           id="feDistantLight3073"
           azimuth="225"
           elevation="24" />
      </feSpecularLighting>
      <feComposite
         id="feComposite3075"
         in2="SourceAlpha"
         result="result6"
         operator="in" />
      <feMorphology
         id="feMorphology3077"
         radius="5.7"
         operator="dilate" />
      <feGaussianBlur
         id="feGaussianBlur3079"
         result="result11"
         stdDeviation="5.7" />
      <feDiffuseLighting
         id="feDiffuseLighting3081"
         surfaceScale="5"
         result="result3"
         diffuseConstant="2"
         in="result1">
        <feDistantLight
           id="feDistantLight3083"
           elevation="25"
           azimuth="225" />
      </feDiffuseLighting>
      <feBlend
         id="feBlend3085"
         in2="SourceGraphic"
         result="result7"
         mode="multiply"
         in="result3" />
      <feComposite
         id="feComposite3087"
         in2="SourceAlpha"
         in="result7"
         operator="in"
         result="result91" />
      <feBlend
         id="feBlend3089"
         in2="result91"
         result="result9"
         mode="lighten"
         in="result6" />
      <feComposite
         id="feComposite3091"
         in2="result9"
         in="result11" />
    </filter>
  </defs>
  <sodipodi:namedview
     id="base"
     bordercolor="#666666"
     inkscape:pageshadow="2"
     inkscape:guide-bbox="true"
     pagecolor="#ffffff"
     inkscape:window-height="850"
     inkscape:window-maximized="1"
     inkscape:zoom="0.5"
     inkscape:window-x="0"
     showgrid="false"
     borderopacity="1.0"
     inkscape:current-layer="layer1"
     inkscape:cx="838.94476"
     inkscape:cy="70.5528"
     showguides="true"
     inkscape:window-y="0"
     inkscape:window-width="1600"
     inkscape:pageopacity="0.0"
     inkscape:document-units="px"
     fit-margin-top="0"
     fit-margin-left="0"
     fit-margin-right="0"
     fit-margin-bottom="0" />
  <g
     id="layer1"
     inkscape:label="Capa 1"
     inkscape:groupmode="layer"
     transform="translate(-118.19251,-252.3808)">
    <g
       id="g3759"
       transform="translate(11.251,0)">
      <rect
         id="rect3662"
         style="opacity:0.2;fill:#2e3436;filter:url(#filter3789)"
         ry="59.537998"
         height="351.42999"
         width="351.42999"
         y="260.41"
         x="121.13" />
      <rect
         id="rect2816"
         style="fill:url(#linearGradient3783)"
         ry="59.537998"
         height="351.42999"
         width="351.42999"
         y="252.63"
         x="108.4" />
      <path
         id="path3605"
         style="fill:#f8f5e7;filter:url(#filter3737)"
         d="m 166.75,256.19 c -31.069,0 -56,24.902 -56,55.969 v 232.34 c 0,10.684 3.048,20.573 8.1875,29.031 -1.3342,-5.1126 -2.2188,-10.405 -2.2188,-15.938 v -232.34 c 0,-34.899 28.195,-63.094 63.094,-63.094 h 232.38 c 5.542,0 10.848,0.88623 15.969,2.2188 -8.4656,-5.1434 -18.368,-8.1875 -29.062,-8.1875 h -232.34 z"
         inkscape:connector-curvature="0" />
      <path
         id="path3608"
         style="fill:#dbc981;filter:url(#filter3741)"
         d="m 398.32,600.89 c 31.069,0 56,-24.902 56,-55.969 v -232.34 c 0,-10.684 -3.048,-20.573 -8.1875,-29.031 1.3342,5.1126 2.2188,10.405 2.2188,15.938 v 232.34 c 0,34.899 -28.195,63.094 -63.094,63.094 h -232.38 c -5.542,0 -10.848,-0.88623 -15.969,-2.2188 8.4656,5.1434 18.368,8.1875 29.062,8.1875 h 232.34 z"
         inkscape:connector-curvature="0" />
      <rect
         id="rect3610"
         style="opacity:0.6;fill:#2e3436"
         ry="13.562"
         height="133.36"
         width="64.417999"
         y="361.67001"
         x="251.91" />
      <path
         id="path3612"
         sodipodi:rx="21.410183"
         sodipodi:ry="21.410183"
         style="opacity:0.2;fill:url(#linearGradient3785)"
         sodipodi:type="arc"
         d="m 293.79528,299.43741 c 0,11.82452 -9.58566,21.41018 -21.41018,21.41018 -11.82452,0 -21.41018,-9.58566 -21.41018,-21.41018 0,-11.82452 9.58566,-21.41018 21.41018,-21.41018 11.82452,0 21.41018,9.58566 21.41018,21.41018 z"
         transform="matrix(-0.86489,0,0,-0.86489,519.7,557.9)"
         sodipodi:cy="299.43741"
         sodipodi:cx="272.3851" />
      <g
         id="g3636"
         transform="matrix(0.83997,0.29296,-0.29296,0.83997,112.2,31.73)">
        <path
           id="path3614"
           sodipodi:rx="21.410183"
           sodipodi:ry="21.410183"
           style="fill:#babdb6"
           sodipodi:type="arc"
           d="m 293.79528,299.43741 c 0,11.82452 -9.58566,21.41018 -21.41018,21.41018 -11.82452,0 -21.41018,-9.58566 -21.41018,-21.41018 0,-11.82452 9.58566,-21.41018 21.41018,-21.41018 11.82452,0 21.41018,9.58566 21.41018,21.41018 z"
           transform="matrix(0.77291,0.227,-0.227,0.77291,138.75,-73.526)"
           sodipodi:cy="299.43741"
           sodipodi:cx="272.3851" />
        <path
           id="rect3624"
           style="fill:#888a85"
           d="m 281.31,202.5 c -1.5384,0 -3.0182,0.21587 -4.4375,0.59375 v 33.312 c 1.4193,0.37788 2.8992,0.59375 4.4375,0.59375 0.0519,0 0.10445,4.9e-4 0.15625,0 v -34.5 c -0.0518,-4.9e-4 -0.10432,0 -0.15625,0 z"
           inkscape:connector-curvature="0" />
        <path
           id="path3634"
           style="fill:#d3d7cf"
           d="m 281.49,202.5 c 1.5384,0 3.0182,0.21587 4.4375,0.59375 v 33.312 c -1.42,0.38 -2.9,0.6 -4.44,0.6 -0.0519,0 -0.10445,4.9e-4 -0.15625,0 v -34.5 c 0.0518,-4.9e-4 0.10432,0 0.15625,0 z"
           inkscape:connector-curvature="0" />
      </g>
      <g
         id="g3653"
         transform="translate(6.6491,0)">
        <path
           id="path3641"
           sodipodi:rx="21.410183"
           sodipodi:ry="21.410183"
           style="opacity:0.2;fill:url(#linearGradient3787)"
           sodipodi:type="arc"
           d="m 293.79528,299.43741 c 0,11.82452 -9.58566,21.41018 -21.41018,21.41018 -11.82452,0 -21.41018,-9.58566 -21.41018,-21.41018 0,-11.82452 9.58566,-21.41018 21.41018,-21.41018 11.82452,0 21.41018,9.58566 21.41018,21.41018 z"
           transform="matrix(-0.86489,0,0,-0.86489,513.05,804.68)"
           sodipodi:cy="299.43741"
           sodipodi:cx="272.3851" />
        <g
           id="g3643"
           transform="matrix(0.83997,0.29296,-0.29296,0.83997,105.94,278.51)">
          <path
             id="path3645"
             sodipodi:rx="21.410183"
             sodipodi:ry="21.410183"
             style="fill:#babdb6"
             sodipodi:type="arc"
             d="m 293.79528,299.43741 c 0,11.82452 -9.58566,21.41018 -21.41018,21.41018 -11.82452,0 -21.41018,-9.58566 -21.41018,-21.41018 0,-11.82452 9.58566,-21.41018 21.41018,-21.41018 11.82452,0 21.41018,9.58566 21.41018,21.41018 z"
             transform="matrix(0.77291,0.227,-0.227,0.77291,138.75,-73.526)"
             sodipodi:cy="299.43741"
             sodipodi:cx="272.3851" />
          <path
             id="path3647"
             style="fill:#888a85"
             d="m 281.31,202.5 c -1.5384,0 -3.0182,0.21587 -4.4375,0.59375 v 33.312 c 1.4193,0.37788 2.8992,0.59375 4.4375,0.59375 0.0519,0 0.10445,4.9e-4 0.15625,0 v -34.5 c -0.0518,-4.9e-4 -0.10432,0 -0.15625,0 z"
             inkscape:connector-curvature="0" />
          <path
             id="path3649"
             style="fill:#d3d7cf"
             d="m 281.49,202.5 c 1.5384,0 3.0182,0.21587 4.4375,0.59375 v 33.312 c -1.42,0.38 -2.9,0.6 -4.44,0.6 -0.0519,0 -0.10445,4.9e-4 -0.15625,0 v -34.5 c 0.0518,-4.9e-4 0.10432,0 0.15625,0 z"
             inkscape:connector-curvature="0" />
        </g>
      </g>
      <path
         id="rect3700"
         sodipodi:nodetypes="cccccccccccc"
         style="opacity:0.2;fill:#2e3436"
         d="m 272.89,366.97 h 37.294 c 7.5131,0 13.562,6.0485 13.562,13.562 v 3.613 l -4,46.669 4,45.255 v 10.696 c 0,7.5131 -6.0485,13.562 -13.562,13.562 H 272.89 c -7.5131,0 -13.562,-6.0485 -13.562,-13.562 v -106.23 c 0,-7.5131 6.0485,-13.562 13.562,-13.562 z"
         inkscape:connector-curvature="0" />
      <g
         id="g3694"
         transform="translate(-56.854,279.35)">
        <path
           id="path3690"
           style="fill:#e8dcb0"
           d="m 371.31,194.03 h -60.406 v 4.8438 c 0,7.2878 5.8685,13.156 13.156,13.156 h 34.094 c 7.2878,0 13.156,-5.8685 13.156,-13.156 V 194.03 z"
           inkscape:connector-curvature="0" />
        <path
           id="path3688"
           style="fill:#f8f5e7"
           d="m 371.31,146.98 h -60.406 v 46.688 H 371.31 V 146.98 z"
           inkscape:connector-curvature="0" />
        <path
           id="rect3674"
           style="fill:#f8f5e7"
           d="m 324.06,82.656 c -7.2878,0 -13.156,5.8685 -13.156,13.156 v 4.8438 H 371.31 V 95.812 c 0,-7.2878 -5.8685,-13.156 -13.156,-13.156 H 324.06 z"
           inkscape:connector-curvature="0" />
        <path
           id="path3692"
           style="fill:#e8dcb0"
           d="m 371.31,100.67 h -60.406 v 46.688 H 371.31 V 100.67 z"
           inkscape:connector-curvature="0" />
      </g>
    </g>
    <text
       xml:space="preserve"
       style="font-size:40px;font-style:normal;font-weight:normal;line-height:125%;letter-spacing:0px;word-spacing:0px;fill:#000000;fill-opacity:1;stroke:none;font-family:Sans;filter:url(#filter3067)"
       x="496.19247"
       y="504.84396"
       id="text3039"
       sodipodi:linespacing="125%"><tspan
         sodipodi:role="line"
         x="496.19247"
         y="504.84396"
         id="tspan3043"
         style="font-size:256px">Switchlight</tspan></text>
  </g>
  <metadata
     id="metadata3111">
    <rdf:RDF>
      <cc:Work>
        <dc:format>image/svg+xml</dc:format>
        <dc:type
           rdf:resource="http://purl.org/dc/dcmitype/StillImage" />
        <cc:license
           rdf:resource="http://creativecommons.org/licenses/publicdomain/" />
        <dc:publisher>
          <cc:Agent
             rdf:about="http://openclipart.org/">
            <dc:title>Openclipart</dc:title>
          </cc:Agent>
        </dc:publisher>
        <dc:title></dc:title>
        <dc:date>2010-04-02T21:36:26</dc:date>
        <dc:description />
        <dc:source>https://openclipart.org/detail/36265/switch--by-rg1024</dc:source>
        <dc:creator>
          <cc:Agent>
            <dc:title>rg1024</dc:title>
          </cc:Agent>
        </dc:creator>
        <dc:subject>
          <rdf:Bag>
            <rdf:li>electrical</rdf:li>
            <rdf:li>house</rdf:li>
            <rdf:li>interruptor</rdf:li>
            <rdf:li>light off</rdf:li>
            <rdf:li>light on</rdf:li>
            <rdf:li>off</rdf:li>
            <rdf:li>on</rdf:li>
            <rdf:li>switch</rdf:li>
          </rdf:Bag>
        </dc:subject>
      </cc:Work>
      <cc:License
         rdf:about="http://creativecommons.org/licenses/publicdomain/">
        <cc:permits
           rdf:resource="http://creativecommons.org/ns#Reproduction" />
        <cc:permits
           rdf:resource="http://creativecommons.org/ns#Distribution" />
        <cc:permits
           rdf:resource="http://creativecommons.org/ns#DerivativeWorks" />
      </cc:License>
    </rdf:RDF>
  </metadata>
</svg>
